<svg width="19" height="15" viewBox="0 0 19 15" fill="none" xmlns="http://www.w3.org/2000/svg">
<path d="M16.3463 3.99499C16.3576 4.1531 16.3576 4.31125 16.3576 4.46937C16.3576 9.29205 12.6869 14.8489 5.978 14.8489C3.91112 14.8489 1.99108 14.2503 0.375977 13.2113C0.669642 13.2451 0.951973 13.2564 1.25694 13.2564C2.96237 13.2564 4.53231 12.6804 5.78599 11.6978C4.18219 11.6639 2.83815 10.6135 2.37507 9.16784C2.60098 9.2017 2.82685 9.2243 3.06405 9.2243C3.39158 9.2243 3.71914 9.1791 4.02407 9.10008C2.35251 8.76122 1.09879 7.29296 1.09879 5.51974V5.47458C1.58443 5.74565 2.1492 5.91506 2.74776 5.93762C1.76514 5.28254 1.12139 4.1644 1.12139 2.89942C1.12139 2.22177 1.30206 1.60058 1.61833 1.05844C3.41414 3.27214 6.11352 4.7178 9.14039 4.87595C9.08393 4.60488 9.05003 4.32255 9.05003 4.04019C9.05003 2.02976 10.6764 0.39209 12.6981 0.39209C13.7485 0.39209 14.6972 0.83257 15.3636 1.54412C16.1881 1.386 16.9787 1.08104 17.679 0.663157C17.4079 1.51026 16.8319 2.2218 16.0752 2.67355C16.8093 2.59453 17.5209 2.39118 18.1759 2.10885C17.679 2.83166 17.0578 3.47542 16.3463 3.99499Z" fill="#000000"/>
</svg>
