<svg width="13" height="14" viewBox="0 0 13 14" fill="none" xmlns="http://www.w3.org/2000/svg">
<path d="M2.83892 4.24403V13.272H0.427576V4.24403H2.83892ZM0.277389 1.8911C0.277389 1.54066 0.399764 1.25141 0.644514 1.02335C0.889264 0.795284 1.21745 0.681253 1.62908 0.681253C2.03514 0.681253 2.36055 0.795284 2.6053 1.02335C2.85561 1.25141 2.98076 1.54066 2.98076 1.8911C2.98076 2.24153 2.85561 2.53078 2.6053 2.75885C2.36055 2.98691 2.03514 3.10094 1.62908 3.10094C1.21745 3.10094 0.889264 2.98691 0.644514 2.75885C0.399764 2.53078 0.277389 2.24153 0.277389 1.8911ZM7.51943 6.17144V13.272H5.11643V4.24403H7.36924L7.51943 6.17144ZM7.16899 8.44094H6.51818C6.51818 7.77344 6.6044 7.17269 6.77684 6.63869C6.94927 6.09913 7.19124 5.64022 7.50274 5.26197C7.81424 4.87816 8.18415 4.58613 8.61246 4.38588C9.04634 4.18007 9.53027 4.07716 10.0643 4.07716C10.487 4.07716 10.8736 4.13835 11.2241 4.26072C11.5745 4.3831 11.8749 4.57778 12.1252 4.84478C12.3811 5.11178 12.5757 5.465 12.7092 5.90444C12.8483 6.34388 12.9178 6.88066 12.9178 7.51478V13.272H10.4981V7.50644C10.4981 7.10594 10.4425 6.79444 10.3313 6.57194C10.22 6.34944 10.0559 6.19369 9.83899 6.10469C9.62762 6.01013 9.36618 5.96285 9.05468 5.96285C8.73206 5.96285 8.45115 6.02682 8.21196 6.15475C7.97834 6.28269 7.78365 6.46069 7.6279 6.68875C7.47771 6.91125 7.36368 7.17269 7.28581 7.47307C7.20793 7.77344 7.16899 8.09607 7.16899 8.44094Z" fill="#393193"/>
</svg>
