<svg width="17" height="17" viewBox="0 0 17 17" fill="none" xmlns="http://www.w3.org/2000/svg">
<path d="M8.4657 4.47571C6.25461 4.47571 4.47113 6.25919 4.47113 8.47028C4.47113 10.6814 6.25461 12.4649 8.4657 12.4649C10.6768 12.4649 12.4603 10.6814 12.4603 8.47028C12.4603 6.25919 10.6768 4.47571 8.4657 4.47571ZM8.4657 11.0673C7.03684 11.0673 5.86871 9.90263 5.86871 8.47028C5.86871 7.03794 7.03336 5.87329 8.4657 5.87329C9.89805 5.87329 11.0627 7.03794 11.0627 8.47028C11.0627 9.90263 9.89457 11.0673 8.4657 11.0673ZM13.5554 4.31231C13.5554 4.83032 13.1382 5.24403 12.6237 5.24403C12.1057 5.24403 11.692 4.82685 11.692 4.31231C11.692 3.79778 12.1091 3.3806 12.6237 3.3806C13.1382 3.3806 13.5554 3.79778 13.5554 4.31231ZM16.2011 5.25794C16.142 4.00985 15.8569 2.90431 14.9425 1.99345C14.0317 1.08259 12.9261 0.79751 11.678 0.734932C10.3917 0.661924 6.53621 0.661924 5.24988 0.734932C4.00527 0.794033 2.89973 1.07911 1.98539 1.98997C1.07105 2.90083 0.789453 4.00638 0.726875 5.25446C0.653867 6.54079 0.653867 10.3963 0.726875 11.6826C0.785977 12.9307 1.07105 14.0363 1.98539 14.9471C2.89973 15.858 4.0018 16.1431 5.24988 16.2056C6.53621 16.2786 10.3917 16.2786 11.678 16.2056C12.9261 16.1465 14.0317 15.8615 14.9425 14.9471C15.8534 14.0363 16.1385 12.9307 16.2011 11.6826C16.2741 10.3963 16.2741 6.54427 16.2011 5.25794ZM14.5393 13.0628C14.2681 13.7442 13.7431 14.2692 13.0582 14.5438C12.0327 14.9506 9.59906 14.8567 8.4657 14.8567C7.33234 14.8567 4.89527 14.9471 3.87316 14.5438C3.19176 14.2727 2.6668 13.7477 2.39215 13.0628C1.98539 12.0372 2.07926 9.60364 2.07926 8.47028C2.07926 7.33692 1.98887 4.89985 2.39215 3.87774C2.66332 3.19634 3.18828 2.67138 3.87316 2.39673C4.89875 1.98997 7.33234 2.08384 8.4657 2.08384C9.59906 2.08384 12.0361 1.99345 13.0582 2.39673C13.7396 2.6679 14.2646 3.19286 14.5393 3.87774C14.946 4.90333 14.8521 7.33692 14.8521 8.47028C14.8521 9.60364 14.946 12.0407 14.5393 13.0628Z" fill="#000000"/>
</svg>
